<?xml version="1.0" encoding="iso-8859-1"?>
<!-- Generator: Adobe Illustrator 19.0.0, SVG Export Plug-In . SVG Version: 6.00 Build 0)  -->
<svg version="1.1" id="Capa_1" xmlns="http://www.w3.org/2000/svg" xmlns:xlink="http://www.w3.org/1999/xlink" x="0px" y="0px"
	 viewBox="0 0 512 512" style="enable-background:new 0 0 512 512;" xml:space="preserve">
<g>
	<g>
		<path d="M451.998,0H60.001C26.918,0,0.002,26.916,0.002,59.999v259.997c0,33.084,26.916,59.999,59.999,59.999H236v34H156
			c-8.533,0-16.126,5.414-18.907,13.48l-20,57.999c-3.601,10.442,1.945,21.827,12.388,25.428
			c10.439,3.598,21.826-1.945,25.427-12.388l15.351-44.52h171.48l15.352,44.52c3.613,10.476,15.016,15.977,25.427,12.388
			c10.442-3.601,15.988-14.985,12.388-25.428l-20-57.999c-2.781-8.066-10.374-13.48-18.907-13.48H276v-34h175.998
			c33.084,0,59.999-26.916,59.999-59.999V59.999C511.997,26.916,485.081,0,451.998,0z M471.997,319.997c0,11.028-8.972,20-20,20
			H60.001c-11.028,0-20-8.972-20-20V59.999c0-11.028,8.972-20,20-20h391.996c11.028,0,20,8.972,20,20V319.997z"/>
	</g>
</g>
<g>
</g>
<g>
</g>
<g>
</g>
<g>
</g>
<g>
</g>
<g>
</g>
<g>
</g>
<g>
</g>
<g>
</g>
<g>
</g>
<g>
</g>
<g>
</g>
<g>
</g>
<g>
</g>
<g>
</g>
</svg>
